<svg width="1120" height="90" viewBox="0 0 1120 90" fill="none" xmlns="http://www.w3.org/2000/svg">
<path d="M2.82812 5.625V17H1.32031V5.625H2.82812ZM7.59375 10.7422V11.9766H2.5V10.7422H7.59375ZM8.36719 5.625V6.85938H2.5V5.625H8.36719ZM9.39062 12.8672V12.6875C9.39062 12.0781 9.47917 11.513 9.65625 10.9922C9.83333 10.4661 10.0885 10.0104 10.4219 9.625C10.7552 9.23438 11.1589 8.93229 11.6328 8.71875C12.1068 8.5 12.638 8.39062 13.2266 8.39062C13.8203 8.39062 14.3542 8.5 14.8281 8.71875C15.3073 8.93229 15.7135 9.23438 16.0469 9.625C16.3854 10.0104 16.6432 10.4661 16.8203 10.9922C16.9974 11.513 17.0859 12.0781 17.0859 12.6875V12.8672C17.0859 13.4766 16.9974 14.0417 16.8203 14.5625C16.6432 15.0833 16.3854 15.5391 16.0469 15.9297C15.7135 16.3151 15.3099 16.6172 14.8359 16.8359C14.3672 17.0495 13.8359 17.1562 13.2422 17.1562C12.6484 17.1562 12.1146 17.0495 11.6406 16.8359C11.1667 16.6172 10.7604 16.3151 10.4219 15.9297C10.0885 15.5391 9.83333 15.0833 9.65625 14.5625C9.47917 14.0417 9.39062 13.4766 9.39062 12.8672ZM10.8359 12.6875V12.8672C10.8359 13.2891 10.8854 13.6875 10.9844 14.0625C11.0833 14.4323 11.2318 14.7604 11.4297 15.0469C11.6328 15.3333 11.8854 15.5599 12.1875 15.7266C12.4896 15.888 12.8411 15.9688 13.2422 15.9688C13.638 15.9688 13.9844 15.888 14.2812 15.7266C14.5833 15.5599 14.8333 15.3333 15.0312 15.0469C15.2292 14.7604 15.3776 14.4323 15.4766 14.0625C15.5807 13.6875 15.6328 13.2891 15.6328 12.8672V12.6875C15.6328 12.2708 15.5807 11.8776 15.4766 11.5078C15.3776 11.1328 15.2266 10.8021 15.0234 10.5156C14.8255 10.224 14.5755 9.99479 14.2734 9.82812C13.9766 9.66146 13.6276 9.57812 13.2266 9.57812C12.8307 9.57812 12.4818 9.66146 12.1797 9.82812C11.8828 9.99479 11.6328 10.224 11.4297 10.5156C11.2318 10.8021 11.0833 11.1328 10.9844 11.5078C10.8854 11.8776 10.8359 12.2708 10.8359 12.6875ZM20.4688 5V17H19.0156V5H20.4688ZM24.3594 5V17H22.9062V5H24.3594ZM26.2969 12.8672V12.6875C26.2969 12.0781 26.3854 11.513 26.5625 10.9922C26.7396 10.4661 26.9948 10.0104 27.3281 9.625C27.6615 9.23438 28.0651 8.93229 28.5391 8.71875C29.013 8.5 29.5443 8.39062 30.1328 8.39062C30.7266 8.39062 31.2604 8.5 31.7344 8.71875C32.2135 8.93229 32.6198 9.23438 32.9531 9.625C33.2917 10.0104 33.5495 10.4661 33.7266 10.9922C33.9036 11.513 33.9922 12.0781 33.9922 12.6875V12.8672C33.9922 13.4766 33.9036 14.0417 33.7266 14.5625C33.5495 15.0833 33.2917 15.5391 32.9531 15.9297C32.6198 16.3151 32.2161 16.6172 31.7422 16.8359C31.2734 17.0495 30.7422 17.1562 30.1484 17.1562C29.5547 17.1562 29.0208 17.0495 28.5469 16.8359C28.0729 16.6172 27.6667 16.3151 27.3281 15.9297C26.9948 15.5391 26.7396 15.0833 26.5625 14.5625C26.3854 14.0417 26.2969 13.4766 26.2969 12.8672ZM27.7422 12.6875V12.8672C27.7422 13.2891 27.7917 13.6875 27.8906 14.0625C27.9896 14.4323 28.138 14.7604 28.3359 15.0469C28.5391 15.3333 28.7917 15.5599 29.0938 15.7266C29.3958 15.888 29.7474 15.9688 30.1484 15.9688C30.5443 15.9688 30.8906 15.888 31.1875 15.7266C31.4896 15.5599 31.7396 15.3333 31.9375 15.0469C32.1354 14.7604 32.2839 14.4323 32.3828 14.0625C32.487 13.6875 32.5391 13.2891 32.5391 12.8672V12.6875C32.5391 12.2708 32.487 11.8776 32.3828 11.5078C32.2839 11.1328 32.1328 10.8021 31.9297 10.5156C31.7318 10.224 31.4818 9.99479 31.1797 9.82812C30.8828 9.66146 30.5339 9.57812 30.1328 9.57812C29.737 9.57812 29.388 9.66146 29.0859 9.82812C28.7891 9.99479 28.5391 10.224 28.3359 10.5156C28.138 10.8021 27.9896 11.1328 27.8906 11.5078C27.7917 11.8776 27.7422 12.2708 27.7422 12.6875ZM37.9453 15.5L40.1172 8.54688H41.0703L40.8828 9.92969L38.6719 17H37.7422L37.9453 15.5ZM36.4844 8.54688L38.3359 15.5781L38.4688 17H37.4922L35.0391 8.54688H36.4844ZM43.1484 15.5234L44.9141 8.54688H46.3516L43.8984 17H42.9297L43.1484 15.5234ZM41.2812 8.54688L43.4062 15.3828L43.6484 17H42.7266L40.4531 9.91406L40.2656 8.54688H41.2812ZM56.9766 15.0469V8.54688H58.4297V17H57.0469L56.9766 15.0469ZM57.25 13.2656L57.8516 13.25C57.8516 13.8125 57.7917 14.3333 57.6719 14.8125C57.5573 15.2865 57.3698 15.6979 57.1094 16.0469C56.849 16.3958 56.5078 16.6693 56.0859 16.8672C55.6641 17.0599 55.151 17.1562 54.5469 17.1562C54.1354 17.1562 53.7578 17.0964 53.4141 16.9766C53.0755 16.8568 52.7839 16.6719 52.5391 16.4219C52.2943 16.1719 52.1042 15.8464 51.9688 15.4453C51.8385 15.0443 51.7734 14.5625 51.7734 14V8.54688H53.2188V14.0156C53.2188 14.3958 53.2604 14.7109 53.3438 14.9609C53.4323 15.2057 53.5495 15.401 53.6953 15.5469C53.8464 15.6875 54.013 15.7865 54.1953 15.8438C54.3828 15.901 54.5755 15.9297 54.7734 15.9297C55.388 15.9297 55.875 15.8125 56.2344 15.5781C56.5938 15.3385 56.8516 15.0182 57.0078 14.6172C57.1693 14.2109 57.25 13.7604 57.25 13.2656ZM65.5547 14.7578C65.5547 14.5495 65.5078 14.3568 65.4141 14.1797C65.3255 13.9974 65.1406 13.8333 64.8594 13.6875C64.5833 13.5365 64.1667 13.4062 63.6094 13.2969C63.1406 13.1979 62.7161 13.0807 62.3359 12.9453C61.9609 12.8099 61.6406 12.6458 61.375 12.4531C61.1146 12.2604 60.9141 12.0339 60.7734 11.7734C60.6328 11.513 60.5625 11.2083 60.5625 10.8594C60.5625 10.526 60.6354 10.2109 60.7812 9.91406C60.9323 9.61719 61.1432 9.35417 61.4141 9.125C61.6901 8.89583 62.0208 8.71615 62.4062 8.58594C62.7917 8.45573 63.2214 8.39062 63.6953 8.39062C64.3724 8.39062 64.9505 8.51042 65.4297 8.75C65.9089 8.98958 66.276 9.3099 66.5312 9.71094C66.7865 10.1068 66.9141 10.5469 66.9141 11.0312H65.4688C65.4688 10.7969 65.3984 10.5703 65.2578 10.3516C65.1224 10.1276 64.9219 9.94271 64.6562 9.79688C64.3958 9.65104 64.0755 9.57812 63.6953 9.57812C63.2943 9.57812 62.9688 9.64062 62.7188 9.76562C62.474 9.88542 62.2943 10.0391 62.1797 10.2266C62.0703 10.4141 62.0156 10.612 62.0156 10.8203C62.0156 10.9766 62.0417 11.1172 62.0938 11.2422C62.151 11.362 62.25 11.474 62.3906 11.5781C62.5312 11.6771 62.7292 11.7708 62.9844 11.8594C63.2396 11.9479 63.5651 12.0365 63.9609 12.125C64.6536 12.2812 65.224 12.4688 65.6719 12.6875C66.1198 12.9062 66.4531 13.1745 66.6719 13.4922C66.8906 13.8099 67 14.1953 67 14.6484C67 15.0182 66.9219 15.3568 66.7656 15.6641C66.6146 15.9714 66.3932 16.237 66.1016 16.4609C65.8151 16.6797 65.4714 16.8516 65.0703 16.9766C64.6745 17.0964 64.2292 17.1562 63.7344 17.1562C62.9896 17.1562 62.3594 17.0234 61.8438 16.7578C61.3281 16.4922 60.9375 16.1484 60.6719 15.7266C60.4062 15.3047 60.2734 14.8594 60.2734 14.3906H61.7266C61.7474 14.7865 61.862 15.1016 62.0703 15.3359C62.2786 15.5651 62.5339 15.7292 62.8359 15.8281C63.138 15.9219 63.4375 15.9688 63.7344 15.9688C64.1302 15.9688 64.4609 15.9167 64.7266 15.8125C64.9974 15.7083 65.2031 15.5651 65.3438 15.3828C65.4844 15.2005 65.5547 14.9922 65.5547 14.7578Z" fill="#F6F7F8"/>
<path fill-rule="evenodd" clip-rule="evenodd" d="M27.5 51.076C27.5 44.131 21.903 38.5 15 38.5C8.09698 38.5 2.5 44.131 2.5 51.076C2.5 57.3525 7.07043 62.5555 13.0471 63.5V54.7121H9.87238V51.076H13.0471V48.3047C13.0471 45.1531 14.9139 43.4111 17.7686 43.4111C19.1361 43.4111 20.5671 43.657 20.5671 43.657V46.7519H18.9902C17.4381 46.7519 16.9529 47.7211 16.9529 48.7168V51.0759H20.4194L19.8656 54.712H16.9529V63.4999C22.9295 62.5571 27.5 57.3542 27.5 51.076Z" fill="#D9D9D9"/>
<path d="M89.5 43.4051C88.5801 43.813 87.5916 44.0887 86.5541 44.2127C87.6131 43.5779 88.4264 42.5727 88.8094 41.3751C87.8184 41.9628 86.7206 42.3897 85.5524 42.6198C84.6166 41.6229 83.2838 41 81.8085 41C78.9759 41 76.6792 43.2965 76.6792 46.1289C76.6792 46.5309 76.7247 46.9224 76.8121 47.2978C72.5494 47.0839 68.7701 45.0419 66.2404 41.9389C65.7989 42.6964 65.5459 43.5775 65.5459 44.5174C65.5459 46.2968 66.4515 47.8668 67.8277 48.7865C66.9869 48.7599 66.1961 48.5291 65.5045 48.145C65.5042 48.1664 65.5041 48.1879 65.5041 48.2095C65.5041 50.6946 67.2721 52.7676 69.6185 53.2388C69.1881 53.356 68.735 53.4186 68.2671 53.4186C67.9367 53.4186 67.6153 53.3865 67.3022 53.3266C67.9549 55.3644 69.849 56.8472 72.0935 56.8886C70.3381 58.2642 68.1265 59.0842 65.7235 59.0842C65.3096 59.0842 64.9013 59.06 64.5 59.0126C66.7698 60.4679 69.4659 61.317 72.3624 61.317C81.7965 61.317 86.9555 53.5015 86.9555 46.7237C86.9555 46.5013 86.9505 46.2801 86.9406 46.0602C87.9427 45.337 88.8124 44.4336 89.5 43.4051Z" fill="#D9D9D9"/>
<path d="M139 41C126.715 41 126.5 42.0925 126.5 50.625C126.5 59.1575 126.715 60.25 139 60.25C151.285 60.25 151.5 59.1575 151.5 50.625C151.5 42.0925 151.285 41 139 41ZM143.006 51.0425L137.394 53.6625C136.903 53.89 136.5 53.635 136.5 53.0925V48.1575C136.5 47.6162 136.903 47.36 137.394 47.5875L143.006 50.2075C143.497 50.4375 143.497 50.8125 143.006 51.0425Z" fill="#D9D9D9"/>
<path fill-rule="evenodd" clip-rule="evenodd" d="M210.156 55.5454C210.106 56.6424 209.923 57.2384 209.77 57.6343C209.566 58.1591 209.322 58.5344 208.926 58.928C208.534 59.3216 208.159 59.5651 207.634 59.7675C207.238 59.9221 206.64 60.1061 205.543 60.1584C204.357 60.2106 204.006 60.2217 200.999 60.2217C197.994 60.2217 197.64 60.2106 196.454 60.1584C195.357 60.1061 194.762 59.9221 194.366 59.7675C193.838 59.5651 193.466 59.3216 193.072 58.928C192.676 58.5344 192.432 58.1591 192.23 57.6343C192.077 57.2384 191.891 56.6424 191.844 55.5454C191.786 54.3595 191.775 54.0026 191.775 51.0014C191.775 47.9941 191.786 47.6399 191.844 46.454C191.891 45.3571 192.077 44.7616 192.23 44.3624C192.432 43.8381 192.676 43.465 193.072 43.0714C193.466 42.6784 193.838 42.4343 194.366 42.2297C194.762 42.0746 195.357 41.8933 196.454 41.8411C197.64 41.7888 197.994 41.7754 200.999 41.7754C204.006 41.7754 204.357 41.7888 205.543 41.8411C206.64 41.8933 207.238 42.0746 207.634 42.2297C208.159 42.4343 208.534 42.6784 208.926 43.0714C209.322 43.465 209.566 43.8381 209.77 44.3624C209.923 44.7616 210.106 45.3571 210.156 46.454C210.211 47.6399 210.225 47.9941 210.225 51.0014C210.225 54.0026 210.211 54.3595 210.156 55.5454ZM212.182 46.3617C212.127 45.163 211.938 44.3441 211.657 43.6308C211.371 42.8907 210.988 42.2636 210.361 41.6365C209.736 41.0121 209.109 40.629 208.369 40.3399C207.653 40.0619 206.837 39.8706 205.638 39.8184C204.439 39.7605 204.055 39.75 200.999 39.75C197.945 39.75 197.559 39.7605 196.36 39.8184C195.163 39.8706 194.347 40.0619 193.628 40.3399C192.891 40.629 192.264 41.0121 191.639 41.6365C191.012 42.2636 190.629 42.8907 190.34 43.6308C190.062 44.3441 189.873 45.163 189.816 46.3617C189.763 47.561 189.75 47.9446 189.75 51.0014C189.75 54.0554 189.763 54.4385 189.816 55.6378C189.873 56.8342 190.062 57.6526 190.34 58.3692C190.629 59.1065 191.012 59.7364 191.639 60.3608C192.264 60.9851 192.891 61.371 193.628 61.6595C194.347 61.9375 195.163 62.1266 196.36 62.1816C197.559 62.2366 197.945 62.25 200.999 62.25C204.055 62.25 204.439 62.2366 205.638 62.1816C206.837 62.1266 207.653 61.9375 208.369 61.6595C209.109 61.371 209.736 60.9851 210.361 60.3608C210.988 59.7364 211.371 59.1065 211.657 58.3692C211.938 57.6526 212.127 56.8342 212.182 55.6378C212.237 54.4385 212.25 54.0554 212.25 51.0014C212.25 47.9446 212.237 47.561 212.182 46.3617ZM208.356 44.9951C208.356 44.2473 207.75 43.6435 207.005 43.6435C206.26 43.6435 205.653 44.2473 205.653 44.9951C205.653 45.7401 206.26 46.3439 207.005 46.3439C207.75 46.3439 208.356 45.7401 208.356 44.9951ZM197.249 51.0014C197.249 53.0712 198.929 54.7481 200.999 54.7481C203.069 54.7481 204.751 53.0712 204.751 51.0014C204.751 48.9281 203.069 47.2491 200.999 47.2491C198.929 47.2491 197.249 48.9281 197.249 51.0014ZM195.224 51.0014C195.224 47.8106 197.808 45.2209 200.999 45.2209C204.189 45.2209 206.776 47.8106 206.776 51.0014C206.776 54.1894 204.189 56.7764 200.999 56.7764C197.808 56.7764 195.224 54.1894 195.224 51.0014Z" fill="#D9D9D9"/>
<path d="M267.969 46.1337C267.093 45.5639 266.463 44.6495 266.265 43.5859C266.222 43.3525 266.197 43.1165 266.197 42.875H263.403L263.397 54.0729C263.351 55.3264 262.317 56.333 261.053 56.333C260.66 56.333 260.291 56.2354 259.965 56.0644C259.216 55.671 258.706 54.8869 258.706 53.986C258.706 52.6917 259.759 51.6362 261.056 51.6362C261.297 51.6362 261.531 51.677 261.748 51.7448V49.5551V48.8931C261.52 48.8632 261.289 48.8416 261.056 48.8416C258.22 48.8416 255.914 51.1479 255.914 53.9832C255.914 55.7225 256.782 57.2636 258.109 58.1944C258.945 58.7804 259.96 59.125 261.056 59.125C263.891 59.125 266.197 56.8187 266.197 53.9832V48.3043C267.294 49.0911 268.637 49.5551 270.086 49.5551V47.3845V46.7632C269.304 46.7605 268.577 46.5298 267.969 46.1337Z" fill="#D9D9D9"/>
<g clip-path="url(#clip0_4_7316)">
<g clip-path="url(#clip1_4_7316)">
<path d="M960.5 25H835.5C832.739 25 830.5 27.2386 830.5 30V60C830.5 62.7614 832.739 65 835.5 65H960.5C963.261 65 965.5 62.7614 965.5 60V30C965.5 27.2386 963.261 25 960.5 25Z" fill="black"/>
<path d="M960.5 25.8C961.614 25.8 962.682 26.2425 963.47 27.0301C964.258 27.8178 964.7 28.8861 964.7 30V60C964.7 61.1139 964.258 62.1822 963.47 62.9698C962.682 63.7575 961.614 64.2 960.5 64.2H835.5C834.386 64.2 833.318 63.7575 832.53 62.9698C831.742 62.1822 831.3 61.1139 831.3 60V30C831.3 28.8861 831.742 27.8178 832.53 27.0301C833.318 26.2425 834.386 25.8 835.5 25.8H960.5ZM960.5 25H835.5C834.174 25 832.902 25.5268 831.964 26.4645C831.027 27.4022 830.5 28.6739 830.5 30V60C830.5 61.3261 831.027 62.5979 831.964 63.5355C832.902 64.4732 834.174 65 835.5 65H960.5C961.826 65 963.098 64.4732 964.036 63.5355C964.973 62.5979 965.5 61.3261 965.5 60V30C965.5 28.6739 964.973 27.4022 964.036 26.4645C963.098 25.5268 961.826 25 960.5 25Z" fill="#A6A6A6"/>
<path d="M877.92 35.2405C877.937 35.6073 877.879 35.9737 877.75 36.3175C877.621 36.6613 877.424 36.9753 877.17 37.2405C876.886 37.5351 876.544 37.7666 876.165 37.92C875.786 38.0733 875.379 38.1451 874.97 38.1305C874.35 38.1256 873.745 37.9379 873.231 37.5909C872.718 37.2438 872.318 36.7528 872.082 36.1794C871.846 35.606 871.784 34.9757 871.905 34.3676C872.026 33.7594 872.323 33.2003 872.76 32.7605C873.047 32.4673 873.392 32.2361 873.772 32.0813C874.152 31.9265 874.56 31.8513 874.97 31.8605C875.393 31.8591 875.811 31.9441 876.2 32.1105C876.562 32.2564 876.884 32.486 877.14 32.7805L876.61 33.3105C876.41 33.0731 876.158 32.8853 875.874 32.7621C875.589 32.6389 875.28 32.5835 874.97 32.6005C874.658 32.5989 874.348 32.6605 874.06 32.7815C873.772 32.9024 873.512 33.0803 873.294 33.3044C873.077 33.5285 872.906 33.7943 872.794 34.0857C872.682 34.3772 872.629 34.6883 872.64 35.0005C872.634 35.4666 872.765 35.9243 873.018 36.3157C873.272 36.7071 873.635 37.0147 874.063 37.1998C874.491 37.3848 874.964 37.439 875.423 37.3555C875.881 37.272 876.305 37.0545 876.64 36.7305C876.948 36.397 877.125 35.964 877.14 35.5105H874.97V34.7905H877.88C877.907 34.939 877.92 35.0896 877.92 35.2405ZM882.5 32.7405H879.8V34.6405H882.26V35.3605H879.8V37.2605H882.5V38.0005H879V32.0005H882.5V32.7405ZM885.78 38.0005H885.01V32.7405H883.33V32.0005H887.5V32.7405H885.78V38.0005ZM890.44 38.0005V32.0005H891.21V38.0005H890.44ZM894.63 38.0005H893.86V32.7405H892.18V32.0005H896.3V32.7405H894.63V38.0005ZM904.11 37.2205C903.525 37.8018 902.735 38.1282 901.91 38.1282C901.086 38.1282 900.295 37.8018 899.71 37.2205C899.142 36.619 898.825 35.8229 898.825 34.9955C898.825 34.168 899.142 33.3719 899.71 32.7705C899.998 32.4802 900.341 32.2498 900.719 32.0926C901.096 31.9354 901.501 31.8545 901.91 31.8545C902.319 31.8545 902.724 31.9354 903.102 32.0926C903.479 32.2498 903.822 32.4802 904.11 32.7705C904.681 33.3708 904.999 34.1673 904.999 34.9955C904.999 35.8237 904.681 36.6202 904.11 37.2205ZM900.28 36.7205C900.713 37.1516 901.299 37.3937 901.91 37.3937C902.521 37.3937 903.107 37.1516 903.54 36.7205C903.967 36.2495 904.204 35.6364 904.204 35.0005C904.204 34.3646 903.967 33.7514 903.54 33.2805C903.107 32.8493 902.521 32.6073 901.91 32.6073C901.299 32.6073 900.713 32.8493 900.28 33.2805C899.853 33.7514 899.616 34.3646 899.616 35.0005C899.616 35.6364 899.853 36.2495 900.28 36.7205ZM906.08 38.0005V32.0005H907.02L909.94 36.6705V32.0005H910.71V38.0005H909.91L906.86 33.1105V38.0005H906.08Z" fill="white" stroke="white" stroke-width="0.2" stroke-miterlimit="10"/>
<path d="M898.64 46.7501C897.8 46.754 896.981 47.0067 896.284 47.4761C895.588 47.9454 895.046 48.6106 894.728 49.3875C894.409 50.1644 894.328 51.0183 894.494 51.8414C894.66 52.6645 895.067 53.4199 895.662 54.0123C896.257 54.6047 897.014 55.0075 897.838 55.1698C898.662 55.3322 899.516 55.2469 900.291 54.9246C901.066 54.6024 901.729 54.0576 902.195 53.3592C902.661 52.6607 902.91 51.8398 902.91 51.0001C902.918 50.438 902.813 49.8801 902.601 49.3594C902.389 48.8388 902.075 48.3661 901.676 47.9696C901.278 47.5731 900.804 47.2607 900.282 47.0512C899.761 46.8417 899.202 46.7393 898.64 46.7501ZM898.64 53.5801C898.124 53.6162 897.608 53.4961 897.161 53.2355C896.714 52.9748 896.355 52.5856 896.132 52.1185C895.909 51.6514 895.831 51.128 895.91 50.6162C895.988 50.1045 896.218 49.6282 896.571 49.2491C896.924 48.8701 897.382 48.6059 897.887 48.4909C898.392 48.3759 898.919 48.4153 899.401 48.6042C899.883 48.793 900.297 49.1225 900.59 49.5498C900.882 49.9771 901.039 50.4824 901.04 51.0001C901.056 51.3281 901.006 51.656 900.894 51.9645C900.781 52.273 900.608 52.5558 900.384 52.7963C900.161 53.0367 899.891 53.23 899.591 53.3646C899.292 53.4992 898.968 53.5725 898.64 53.5801ZM889.33 46.7501C888.49 46.7521 887.669 47.003 886.972 47.4712C886.274 47.9394 885.731 48.6038 885.411 49.3806C885.091 50.1574 885.008 51.0116 885.173 51.8353C885.338 52.6591 885.744 53.4154 886.338 54.0088C886.933 54.6022 887.69 55.006 888.515 55.1692C889.339 55.3323 890.193 55.2476 890.969 54.9256C891.745 54.6037 892.408 54.0589 892.874 53.3602C893.341 52.6615 893.59 51.8402 893.59 51.0001C893.598 50.438 893.493 49.8801 893.281 49.3594C893.069 48.8388 892.755 48.3661 892.356 47.9696C891.958 47.5731 891.484 47.2607 890.962 47.0512C890.441 46.8417 889.882 46.7393 889.32 46.7501H889.33ZM889.33 53.5801C888.813 53.6182 888.297 53.5 887.849 53.2407C887.4 52.9813 887.04 52.593 886.815 52.1262C886.591 51.6594 886.512 51.1357 886.589 50.6234C886.666 50.1111 886.895 49.6339 887.247 49.2538C887.599 48.8737 888.058 48.6085 888.563 48.4925C889.068 48.3766 889.596 48.4154 890.078 48.6038C890.561 48.7922 890.976 49.1216 891.269 49.549C891.561 49.9764 891.719 50.482 891.72 51.0001C891.736 51.3281 891.686 51.656 891.574 51.9645C891.461 52.273 891.288 52.5558 891.064 52.7963C890.841 53.0367 890.571 53.23 890.271 53.3646C889.972 53.4992 889.648 53.5725 889.32 53.5801H889.33ZM878.24 48.0601V49.8601H882.56C882.492 50.7079 882.14 51.5079 881.56 52.1301C881.128 52.5703 880.608 52.9152 880.035 53.1426C879.461 53.3699 878.846 53.4747 878.23 53.4501C876.957 53.4501 875.736 52.9444 874.836 52.0442C873.936 51.144 873.43 49.9231 873.43 48.6501C873.43 47.3771 873.936 46.1562 874.836 45.256C875.736 44.3558 876.957 43.8501 878.23 43.8501C879.448 43.8302 880.624 44.2941 881.5 45.1401L882.77 43.8701C882.179 43.2711 881.473 42.797 880.695 42.4758C879.917 42.1545 879.082 41.9928 878.24 42.0001C877.351 41.9655 876.464 42.1107 875.633 42.4271C874.801 42.7434 874.042 43.2244 873.401 43.8411C872.76 44.4578 872.249 45.1977 871.901 46.0163C871.553 46.8349 871.373 47.7154 871.373 48.6051C871.373 49.4948 871.553 50.3753 871.901 51.1939C872.249 52.0125 872.76 52.7523 873.401 53.3691C874.042 53.9858 874.801 54.4668 875.633 54.7831C876.464 55.0995 877.351 55.2447 878.24 55.2101C879.096 55.2488 879.95 55.1037 880.745 54.7846C881.541 54.4655 882.258 53.9797 882.85 53.3601C883.898 52.209 884.457 50.6959 884.41 49.1401C884.413 48.7611 884.38 48.3826 884.31 48.0101L878.24 48.0601ZM923.55 49.4601C923.289 48.6928 922.802 48.0229 922.152 47.5389C921.502 47.055 920.72 46.7799 919.91 46.7501C919.363 46.749 918.822 46.8602 918.319 47.0766C917.817 47.2931 917.364 47.6103 916.989 48.0086C916.615 48.407 916.325 48.8779 916.14 49.3925C915.954 49.907 915.876 50.4542 915.91 51.0001C915.898 51.559 915.999 52.1146 916.206 52.6338C916.413 53.1529 916.723 53.625 917.117 54.0217C917.511 54.4184 917.981 54.7316 918.499 54.9427C919.016 55.1537 919.571 55.2583 920.13 55.2501C920.83 55.2539 921.519 55.0841 922.137 54.756C922.755 54.4279 923.281 53.9517 923.67 53.3701L922.22 52.3701C922.004 52.7309 921.697 53.0293 921.331 53.2361C920.965 53.443 920.551 53.5512 920.13 53.5501C919.697 53.5666 919.269 53.4524 918.901 53.2223C918.534 52.9923 918.244 52.657 918.07 52.2601L923.76 49.9101L923.55 49.4601ZM917.75 50.8801C917.73 50.5708 917.771 50.2605 917.873 49.9675C917.974 49.6745 918.132 49.4046 918.339 49.1737C918.546 48.9427 918.797 48.7554 919.077 48.6225C919.357 48.4897 919.66 48.4141 919.97 48.4001C920.293 48.3788 920.614 48.4528 920.895 48.6128C921.176 48.7728 921.404 49.0118 921.55 49.3001L917.75 50.8801ZM913.13 55.0001H915V42.5001H913.13V55.0001ZM910.07 47.7001H910C909.718 47.385 909.373 47.133 908.987 46.9607C908.601 46.7883 908.183 46.6995 907.76 46.7001C906.667 46.7531 905.637 47.2245 904.882 48.0167C904.127 48.8088 903.706 49.861 903.706 50.9551C903.706 52.0492 904.127 53.1014 904.882 53.8935C905.637 54.6857 906.667 55.1571 907.76 55.2101C908.184 55.2172 908.604 55.1314 908.991 54.9586C909.378 54.7858 909.722 54.5303 910 54.2101H910.06V54.8201C910.06 56.4501 909.19 57.3201 907.79 57.3201C907.324 57.3092 906.871 57.1598 906.49 56.8909C906.109 56.622 905.817 56.2457 905.65 55.8101L904.02 56.4901C904.327 57.2365 904.85 57.8741 905.521 58.3213C906.193 58.7686 906.983 59.0049 907.79 59.0001C909.98 59.0001 911.79 57.7101 911.79 54.5701V47.0001H910.07V47.7001ZM907.93 53.5801C907.285 53.5232 906.685 53.2268 906.247 52.7493C905.81 52.2717 905.567 51.6476 905.567 51.0001C905.567 50.3525 905.81 49.7285 906.247 49.2509C906.685 48.7734 907.285 48.4769 907.93 48.4201C908.25 48.4365 908.563 48.5168 908.852 48.6561C909.14 48.7955 909.397 48.9912 909.609 49.2316C909.82 49.472 909.982 49.7524 910.083 50.0561C910.185 50.3598 910.224 50.6808 910.2 51.0001C910.227 51.3208 910.189 51.6437 910.088 51.9492C909.987 52.2548 909.825 52.5367 909.612 52.7779C909.399 53.0191 909.139 53.2145 908.848 53.3524C908.557 53.4903 908.242 53.5677 907.92 53.5801H907.93ZM932.31 42.5001H927.84V55.0001H929.71V50.2601H932.32C932.853 50.2984 933.388 50.2265 933.892 50.0488C934.396 49.8712 934.858 49.5916 935.249 49.2276C935.64 48.8636 935.952 48.4228 936.165 47.9329C936.379 47.443 936.489 46.9144 936.489 46.3801C936.489 45.8458 936.379 45.3172 936.165 44.8273C935.952 44.3374 935.64 43.8966 935.249 43.5326C934.858 43.1686 934.396 42.889 933.892 42.7114C933.388 42.5337 932.853 42.4618 932.32 42.5001H932.31ZM932.31 48.5001H929.7V44.2401H932.35C932.919 44.2401 933.464 44.4661 933.867 44.8684C934.269 45.2706 934.495 45.8162 934.495 46.3851C934.495 46.954 934.269 47.4996 933.867 47.9018C933.464 48.3041 932.919 48.5301 932.35 48.5301L932.31 48.5001ZM943.84 46.7001C943.159 46.6594 942.481 46.8185 941.89 47.1578C941.298 47.4971 940.819 48.0019 940.51 48.6101L942.17 49.3001C942.334 48.9984 942.582 48.7509 942.883 48.5875C943.185 48.4242 943.528 48.3521 943.87 48.3801C944.107 48.3524 944.348 48.3722 944.578 48.4384C944.807 48.5046 945.021 48.6159 945.208 48.7658C945.394 48.9157 945.548 49.1011 945.662 49.3113C945.776 49.5215 945.846 49.7523 945.87 49.9901V50.1201C945.269 49.8021 944.6 49.6372 943.92 49.6401C942.13 49.6401 940.32 50.6401 940.32 52.4501C940.338 52.836 940.433 53.2145 940.599 53.5631C940.765 53.9118 941 54.2235 941.289 54.4799C941.578 54.7363 941.916 54.9321 942.282 55.0558C942.648 55.1795 943.035 55.2286 943.42 55.2001C943.891 55.2339 944.362 55.1403 944.785 54.9292C945.207 54.7181 945.565 54.3971 945.82 54.0001H945.88V55.0001H947.68V50.1901C947.68 48.0001 946.02 46.7301 943.89 46.7301L943.84 46.7001ZM943.61 53.5501C943 53.5501 942.15 53.2401 942.15 52.4901C942.15 51.4901 943.21 51.1601 944.15 51.1601C944.744 51.1454 945.331 51.2905 945.85 51.5801C945.787 52.1215 945.531 52.6221 945.129 52.9896C944.727 53.3571 944.205 53.5668 943.66 53.5801L943.61 53.5501ZM954.24 47.0001L952.1 52.4201H952.04L949.82 47.0001H947.82L951.15 54.5801L949.25 58.7901H951.2L956.32 47.0001H954.24ZM937.43 55.0001H939.3V42.5001H937.43V55.0001Z" fill="white"/>
<path d="M840.94 32.5397C840.614 32.9308 840.45 33.4315 840.48 33.9397V56.0597C840.45 56.5679 840.614 57.0686 840.94 57.4597L841.01 57.5297L853.4 45.1497V44.8597L841.01 32.4697L840.94 32.5397Z" fill="url(#paint0_linear_4_7316)"/>
<path d="M857.5 49.2797L853.4 45.1497V44.8597L857.5 40.7197L857.59 40.7697L862.5 43.5597C863.9 44.3497 863.9 45.6497 862.5 46.4497L857.61 49.2297L857.5 49.2797Z" fill="url(#paint1_linear_4_7316)"/>
<path d="M857.62 49.22L853.4 45L840.94 57.46C841.226 57.7109 841.59 57.8541 841.97 57.8651C842.349 57.876 842.721 57.754 843.02 57.52L857.63 49.22" fill="url(#paint2_linear_4_7316)"/>
<path d="M857.62 40.7796L843.01 32.4796C842.71 32.2456 842.339 32.1235 841.959 32.1345C841.579 32.1454 841.215 32.2887 840.93 32.5396L853.4 44.9996L857.62 40.7796Z" fill="url(#paint3_linear_4_7316)"/>
<path opacity="0.2" d="M857.5 49.1299L843.01 57.3799C842.722 57.5958 842.371 57.7124 842.01 57.7124C841.65 57.7124 841.299 57.5958 841.01 57.3799L840.94 57.4499L841.01 57.5199C841.299 57.7373 841.65 57.8549 842.01 57.8549C842.371 57.8549 842.722 57.7373 843.01 57.5199L857.62 49.2199L857.5 49.1299Z" fill="black"/>
<path opacity="0.12" d="M840.94 57.32C840.614 56.9289 840.45 56.4282 840.48 55.92V56.07C840.45 56.5782 840.614 57.0789 840.94 57.47L841.01 57.4L840.94 57.32ZM862.5 46.3L857.5 49.13L857.59 49.22L862.5 46.44C862.779 46.3091 863.018 46.1071 863.193 45.8543C863.369 45.6014 863.475 45.3068 863.5 45C863.444 45.2787 863.325 45.5408 863.151 45.7662C862.978 45.9915 862.755 46.1742 862.5 46.3Z" fill="black"/>
<path opacity="0.25" d="M843.01 32.6204L862.5 43.7004C862.755 43.8262 862.977 44.0089 863.151 44.2342C863.324 44.4596 863.444 44.7217 863.5 45.0004C863.474 44.6936 863.369 44.399 863.193 44.1461C863.018 43.8933 862.778 43.6913 862.5 43.5604L843.01 32.4804C841.61 31.6904 840.47 32.3504 840.47 33.9504V34.1004C840.5 32.4904 841.62 31.8304 843.01 32.6204Z" fill="white"/>
</g>
</g>
<g clip-path="url(#clip2_4_7316)">
<g clip-path="url(#clip3_4_7316)">
<path d="M1100.3 25.0001H999.703C999.336 25.0001 998.974 25.0001 998.608 25.0021C998.302 25.0041 997.998 25.0099 997.689 25.0148C997.017 25.0227 996.348 25.0818 995.685 25.1915C995.023 25.3037 994.383 25.515 993.784 25.8185C993.186 26.1246 992.64 26.5223 992.166 26.9972C991.688 27.4708 991.29 28.0181 990.987 28.6183C990.683 29.2172 990.473 29.8591 990.362 30.5216C990.251 31.1833 990.191 31.8527 990.183 32.5236C990.174 32.8302 990.173 33.1378 990.168 33.4445V56.5587C990.173 56.8692 990.174 57.17 990.183 57.4806C990.191 58.1516 990.251 58.8209 990.362 59.4825C990.472 60.1455 990.683 60.7877 990.987 61.3868C991.29 61.985 991.688 62.5302 992.166 63.0011C992.639 63.4781 993.185 63.8761 993.784 64.1798C994.383 64.4841 995.023 64.6968 995.685 64.8106C996.348 64.9195 997.018 64.9786 997.689 64.9874C997.998 64.9942 998.302 64.9981 998.608 64.9981C998.974 65.0001 999.336 65.0001 999.703 65.0001H1100.3C1100.66 65.0001 1101.03 65.0001 1101.39 64.9981C1101.69 64.9981 1102 64.9942 1102.31 64.9874C1102.98 64.9791 1103.65 64.92 1104.31 64.8106C1104.97 64.696 1105.62 64.4834 1106.22 64.1798C1106.82 63.8759 1107.36 63.478 1107.83 63.0011C1108.31 62.5284 1108.71 61.9836 1109.02 61.3868C1109.32 60.7872 1109.53 60.1451 1109.63 59.4825C1109.75 58.8208 1109.81 58.1516 1109.82 57.4806C1109.82 57.17 1109.82 56.8692 1109.82 56.5587C1109.83 56.1954 1109.83 55.8341 1109.83 55.4649V34.5363C1109.83 34.17 1109.83 33.8068 1109.82 33.4445C1109.82 33.1378 1109.82 32.8302 1109.82 32.5236C1109.81 31.8526 1109.75 31.1834 1109.63 30.5216C1109.53 29.8594 1109.32 29.2176 1109.02 28.6182C1108.4 27.4153 1107.42 26.4362 1106.22 25.8184C1105.62 25.5157 1104.97 25.3044 1104.31 25.1914C1103.65 25.0812 1102.98 25.0221 1102.31 25.0147C1102 25.0098 1101.69 25.0039 1101.39 25.002C1101.03 25 1100.66 25.0001 1100.3 25.0001Z" fill="#A6A6A6"/>
<path d="M998.613 64.125C998.308 64.125 998.011 64.1211 997.709 64.1143C997.082 64.1061 996.458 64.0516 995.839 63.9512C995.263 63.8519 994.705 63.6673 994.183 63.4033C993.666 63.1415 993.194 62.7983 992.786 62.3867C992.372 61.98 992.027 61.5082 991.765 60.9902C991.501 60.4688 991.317 59.9099 991.222 59.333C991.119 58.7131 991.064 58.0863 991.056 57.458C991.049 57.2471 991.041 56.5449 991.041 56.5449V33.4443C991.041 33.4443 991.05 32.7529 991.056 32.5498C991.063 31.9225 991.119 31.2967 991.221 30.6777C991.317 30.0993 991.5 29.5387 991.765 29.0156C992.025 28.4979 992.368 28.0259 992.78 27.6177C993.191 27.2056 993.664 26.8606 994.182 26.5952C994.703 26.3321 995.26 26.1487 995.835 26.0513C996.456 25.9498 997.083 25.895 997.711 25.8872L998.613 25.875H1101.38L1102.29 25.8877C1102.92 25.8951 1103.54 25.9494 1104.15 26.0503C1104.73 26.149 1105.3 26.3336 1105.82 26.5981C1106.86 27.133 1107.71 27.9792 1108.24 29.0181C1108.5 29.5376 1108.68 30.0935 1108.77 30.667C1108.88 31.291 1108.94 31.9217 1108.95 32.5542C1108.95 32.8374 1108.95 33.1416 1108.95 33.4443C1108.96 33.8193 1108.96 34.1763 1108.96 34.5361V55.4648C1108.96 55.8281 1108.96 56.1826 1108.95 56.54C1108.95 56.8652 1108.95 57.1631 1108.95 57.4697C1108.94 58.0909 1108.88 58.7104 1108.78 59.3232C1108.68 59.9043 1108.5 60.4675 1108.24 60.9932C1107.97 61.5056 1107.63 61.9733 1107.22 62.3789C1106.81 62.7927 1106.34 63.1379 1105.82 63.4014C1105.3 63.6674 1104.73 63.8527 1104.15 63.9512C1103.54 64.0522 1102.91 64.1067 1102.28 64.1143C1101.99 64.1211 1101.68 64.125 1101.39 64.125L1100.3 64.127L998.613 64.125Z" fill="black"/>
<path d="M1014.94 45.3013C1014.95 44.4666 1015.17 43.6483 1015.58 42.9223C1015.99 42.1964 1016.58 41.5864 1017.29 41.1492C1016.84 40.5041 1016.25 39.9731 1015.55 39.5986C1014.86 39.224 1014.09 39.0162 1013.3 38.9916C1011.62 38.8153 1010 39.9964 1009.14 39.9964C1008.27 39.9964 1006.95 39.0091 1005.53 39.0383C1004.61 39.0679 1003.72 39.3348 1002.94 39.8128C1002.15 40.2909 1001.5 40.9638 1001.06 41.7661C999.124 45.1145 1000.57 50.0356 1002.42 52.7422C1003.35 54.0676 1004.43 55.548 1005.85 55.4955C1007.23 55.438 1007.75 54.611 1009.43 54.611C1011.09 54.611 1011.57 55.4955 1013.02 55.4621C1014.51 55.438 1015.44 54.1309 1016.34 52.793C1017 51.8486 1017.52 50.8049 1017.86 49.7005C1016.99 49.3347 1016.25 48.7226 1015.73 47.9403C1015.22 47.158 1014.94 46.2402 1014.94 45.3013Z" fill="white"/>
<path d="M1012.21 37.2113C1013.02 36.2371 1013.42 34.9849 1013.32 33.7207C1012.08 33.8509 1010.93 34.4435 1010.11 35.3803C1009.71 35.838 1009.4 36.3704 1009.21 36.9472C1009.01 37.524 1008.93 38.1337 1008.97 38.7417C1009.59 38.7481 1010.2 38.6137 1010.76 38.3486C1011.32 38.0835 1011.82 37.6946 1012.21 37.2113Z" fill="white"/>
<path d="M1032.47 52.1397H1027.74L1026.6 55.4961H1024.6L1029.08 43.0781H1031.16L1035.65 55.4961H1033.61L1032.47 52.1397ZM1028.23 50.5908H1031.98L1030.13 45.1436H1030.08L1028.23 50.5908Z" fill="white"/>
<path d="M1045.33 50.9695C1045.33 53.7829 1043.82 55.5905 1041.55 55.5905C1040.97 55.6207 1040.4 55.4881 1039.9 55.2079C1039.39 54.9278 1038.98 54.5114 1038.7 54.0065H1038.66V58.4909H1036.8V46.4421H1038.6V47.948H1038.63C1038.92 47.4455 1039.35 47.0313 1039.85 46.7495C1040.36 46.4676 1040.94 46.3287 1041.52 46.3474C1043.81 46.3474 1045.33 48.1638 1045.33 50.9695ZM1043.42 50.9695C1043.42 49.1365 1042.47 47.9314 1041.03 47.9314C1039.61 47.9314 1038.65 49.1618 1038.65 50.9695C1038.65 52.7937 1039.61 54.0154 1041.03 54.0154C1042.47 54.0154 1043.42 52.8191 1043.42 50.9695Z" fill="white"/>
<path d="M1055.29 50.9694C1055.29 53.7829 1053.79 55.5905 1051.51 55.5905C1050.94 55.6206 1050.37 55.488 1049.86 55.2079C1049.36 54.9278 1048.94 54.5114 1048.67 54.0065H1048.62V58.4909H1046.76V46.4421H1048.56V47.948H1048.6C1048.89 47.4455 1049.31 47.0313 1049.82 46.7495C1050.33 46.4676 1050.9 46.3287 1051.48 46.3474C1053.78 46.3474 1055.29 48.1638 1055.29 50.9694ZM1053.38 50.9694C1053.38 49.1364 1052.44 47.9314 1050.99 47.9314C1049.57 47.9314 1048.62 49.1618 1048.62 50.9694C1048.62 52.7937 1049.57 54.0153 1050.99 54.0153C1052.44 54.0153 1053.38 52.8191 1053.38 50.9694Z" fill="white"/>
<path d="M1061.88 52.0362C1062.02 53.2676 1063.21 54.0762 1064.85 54.0762C1066.41 54.0762 1067.54 53.2676 1067.54 52.1572C1067.54 51.1934 1066.86 50.6162 1065.25 50.2207L1063.64 49.833C1061.36 49.2822 1060.3 48.2158 1060.3 46.4854C1060.3 44.3428 1062.17 42.8711 1064.82 42.8711C1067.45 42.8711 1069.25 44.3428 1069.31 46.4854H1067.43C1067.32 45.2461 1066.29 44.4981 1064.8 44.4981C1063.3 44.4981 1062.27 45.2549 1062.27 46.3565C1062.27 47.2344 1062.93 47.751 1064.53 48.1465L1065.9 48.4824C1068.45 49.0849 1069.5 50.1084 1069.5 51.9248C1069.5 54.248 1067.65 55.7031 1064.71 55.7031C1061.96 55.7031 1060.1 54.2822 1059.98 52.0361L1061.88 52.0362Z" fill="white"/>
<path d="M1073.51 44.2998V46.4424H1075.24V47.9141H1073.51V52.9053C1073.51 53.6807 1073.86 54.042 1074.62 54.042C1074.82 54.0384 1075.02 54.0241 1075.23 53.999V55.4619C1074.89 55.5255 1074.54 55.5543 1074.2 55.5478C1072.36 55.5478 1071.65 54.8593 1071.65 53.1035V47.9141H1070.33V46.4424H1071.65V44.2998H1073.51Z" fill="white"/>
<path d="M1076.23 50.9697C1076.23 48.1211 1077.91 46.3311 1080.53 46.3311C1083.15 46.3311 1084.82 48.1211 1084.82 50.9697C1084.82 53.8262 1083.16 55.6084 1080.53 55.6084C1077.89 55.6084 1076.23 53.8262 1076.23 50.9697ZM1082.93 50.9697C1082.93 49.0156 1082.03 47.8623 1080.53 47.8623C1079.02 47.8623 1078.13 49.0244 1078.13 50.9697C1078.13 52.9316 1079.02 54.0762 1080.53 54.0762C1082.03 54.0762 1082.93 52.9316 1082.93 50.9697Z" fill="white"/>
<path d="M1086.35 46.442H1088.13V47.983H1088.17C1088.29 47.5017 1088.57 47.0764 1088.97 46.7785C1089.37 46.4806 1089.85 46.3284 1090.35 46.3473C1090.56 46.3465 1090.78 46.3698 1090.98 46.4166V48.1549C1090.71 48.0723 1090.43 48.0343 1090.15 48.0426C1089.88 48.0316 1089.61 48.0792 1089.36 48.1821C1089.11 48.285 1088.89 48.4408 1088.7 48.6386C1088.52 48.8365 1088.38 49.0719 1088.29 49.3286C1088.21 49.5852 1088.18 49.8571 1088.21 50.1256V55.4957H1086.35L1086.35 46.442Z" fill="white"/>
<path d="M1099.55 52.8369C1099.3 54.4805 1097.7 55.6084 1095.65 55.6084C1093.02 55.6084 1091.39 53.8437 1091.39 51.0127C1091.39 48.1729 1093.03 46.3311 1095.58 46.3311C1098.08 46.3311 1099.66 48.0518 1099.66 50.7969V51.4336H1093.26V51.5459C1093.23 51.8791 1093.27 52.2148 1093.38 52.5306C1093.49 52.8464 1093.67 53.1352 1093.9 53.3778C1094.13 53.6203 1094.41 53.8111 1094.72 53.9374C1095.03 54.0637 1095.36 54.1226 1095.7 54.1103C1096.14 54.1515 1096.58 54.0498 1096.95 53.8203C1097.33 53.5909 1097.62 53.246 1097.79 52.8369L1099.55 52.8369ZM1093.27 50.1348H1097.8C1097.81 49.8352 1097.77 49.5354 1097.66 49.2541C1097.56 48.9729 1097.4 48.7164 1097.19 48.5006C1096.98 48.2849 1096.73 48.1145 1096.45 48.0003C1096.17 47.8861 1095.88 47.8305 1095.58 47.8369C1095.27 47.8351 1094.97 47.8933 1094.69 48.008C1094.41 48.1227 1094.16 48.2918 1093.94 48.5054C1093.73 48.7191 1093.56 48.973 1093.44 49.2527C1093.33 49.5323 1093.27 49.8321 1093.27 50.1348Z" fill="white"/>
<path d="M1027.99 33.7304C1028.38 33.7024 1028.77 33.7613 1029.14 33.9027C1029.5 34.0442 1029.83 34.2647 1030.1 34.5483C1030.37 34.8319 1030.57 35.1716 1030.69 35.5429C1030.81 35.9141 1030.85 36.3077 1030.8 36.6952C1030.8 38.6015 1029.77 39.6972 1027.99 39.6972H1025.84V33.7304H1027.99ZM1026.77 38.8534H1027.89C1028.17 38.87 1028.45 38.8244 1028.71 38.7198C1028.96 38.6152 1029.2 38.4542 1029.39 38.2487C1029.57 38.0431 1029.71 37.7981 1029.8 37.5315C1029.88 37.2648 1029.9 36.9833 1029.86 36.7074C1029.9 36.4326 1029.87 36.1528 1029.79 35.8881C1029.71 35.6235 1029.57 35.3805 1029.38 35.1765C1029.19 34.9726 1028.96 34.8128 1028.7 34.7086C1028.44 34.6043 1028.17 34.5582 1027.89 34.5736H1026.77V38.8534Z" fill="white"/>
<path d="M1031.85 37.4438C1031.82 37.1479 1031.85 36.8493 1031.95 36.5672C1032.04 36.2852 1032.19 36.0258 1032.39 35.8059C1032.59 35.5859 1032.84 35.4101 1033.11 35.2898C1033.38 35.1696 1033.68 35.1074 1033.97 35.1074C1034.27 35.1074 1034.56 35.1696 1034.84 35.2898C1035.11 35.4101 1035.35 35.5859 1035.55 35.8059C1035.75 36.0258 1035.9 36.2852 1036 36.5672C1036.09 36.8493 1036.12 37.1479 1036.1 37.4438C1036.12 37.74 1036.09 38.039 1036 38.3215C1035.9 38.6041 1035.75 38.8639 1035.55 39.0843C1035.35 39.3047 1035.11 39.4808 1034.84 39.6014C1034.56 39.7219 1034.27 39.7842 1033.97 39.7842C1033.67 39.7842 1033.38 39.7219 1033.11 39.6014C1032.84 39.4808 1032.59 39.3047 1032.39 39.0843C1032.19 38.8639 1032.04 38.6041 1031.95 38.3215C1031.85 38.039 1031.82 37.74 1031.85 37.4438ZM1035.18 37.4438C1035.18 36.4677 1034.74 35.8969 1033.97 35.8969C1033.2 35.8969 1032.77 36.4677 1032.77 37.4438C1032.77 38.4277 1033.2 38.9941 1033.97 38.9941C1034.74 38.9941 1035.18 38.4238 1035.18 37.4438Z" fill="white"/>
<path d="M1041.74 39.6973H1040.82L1039.89 36.3809H1039.82L1038.89 39.6973H1037.98L1036.74 35.1943H1037.64L1038.45 38.6303H1038.51L1039.44 35.1943H1040.29L1041.22 38.6303H1041.29L1042.09 35.1943H1042.98L1041.74 39.6973Z" fill="white"/>
<path d="M1044.02 35.1939H1044.88V35.9092H1044.94C1045.06 35.6523 1045.25 35.4369 1045.49 35.2931C1045.73 35.1493 1046.01 35.0842 1046.29 35.107C1046.51 35.0905 1046.73 35.1235 1046.93 35.2036C1047.14 35.2837 1047.32 35.4088 1047.47 35.5697C1047.62 35.7305 1047.73 35.923 1047.8 36.1328C1047.86 36.3426 1047.88 36.5644 1047.85 36.7818V39.6968H1046.96V37.0049C1046.96 36.2813 1046.64 35.9214 1045.99 35.9214C1045.84 35.9145 1045.69 35.9398 1045.55 35.9957C1045.41 36.0515 1045.29 36.1365 1045.19 36.2449C1045.08 36.3533 1045.01 36.4825 1044.96 36.6236C1044.91 36.7647 1044.89 36.9145 1044.91 37.0625V39.6968H1044.02L1044.02 35.1939Z" fill="white"/>
<path d="M1049.26 33.4365H1050.15V39.6973H1049.26V33.4365Z" fill="white"/>
<path d="M1051.39 37.4439C1051.36 37.1479 1051.39 36.8494 1051.49 36.5673C1051.58 36.2852 1051.73 36.0259 1051.93 35.8059C1052.13 35.5859 1052.37 35.4101 1052.65 35.2898C1052.92 35.1696 1053.21 35.1074 1053.51 35.1074C1053.81 35.1074 1054.1 35.1696 1054.37 35.2898C1054.64 35.4101 1054.89 35.5859 1055.09 35.8059C1055.29 36.0259 1055.44 36.2852 1055.53 36.5673C1055.63 36.8494 1055.66 37.1479 1055.63 37.4439C1055.66 37.7401 1055.63 38.0391 1055.54 38.3216C1055.44 38.6042 1055.29 38.864 1055.09 39.0844C1054.89 39.3048 1054.65 39.4809 1054.37 39.6014C1054.1 39.722 1053.81 39.7842 1053.51 39.7842C1053.21 39.7842 1052.92 39.722 1052.65 39.6014C1052.37 39.4809 1052.13 39.3048 1051.93 39.0844C1051.73 38.864 1051.58 38.6042 1051.48 38.3216C1051.39 38.0391 1051.36 37.7401 1051.39 37.4439ZM1054.72 37.4439C1054.72 36.4678 1054.28 35.897 1053.51 35.897C1052.74 35.897 1052.3 36.4678 1052.3 37.4439C1052.3 38.4278 1052.74 38.9942 1053.51 38.9942C1054.28 38.9942 1054.72 38.4239 1054.72 37.4439Z" fill="white"/>
<path d="M1056.57 38.4238C1056.57 37.6133 1057.17 37.146 1058.24 37.0796L1059.46 37.0093V36.6206C1059.46 36.145 1059.15 35.8765 1058.54 35.8765C1058.04 35.8765 1057.7 36.0586 1057.6 36.377H1056.74C1056.83 35.6035 1057.56 35.1074 1058.58 35.1074C1059.71 35.1074 1060.35 35.6694 1060.35 36.6206V39.6973H1059.49V39.0645H1059.42C1059.28 39.2914 1059.08 39.4765 1058.84 39.6007C1058.6 39.7249 1058.34 39.7838 1058.07 39.7715C1057.88 39.7911 1057.69 39.7709 1057.51 39.7122C1057.33 39.6536 1057.16 39.5576 1057.02 39.4307C1056.88 39.3037 1056.77 39.1485 1056.69 38.9751C1056.61 38.8017 1056.57 38.6139 1056.57 38.4238ZM1059.46 38.0391V37.6626L1058.36 37.7329C1057.74 37.7744 1057.46 37.9853 1057.46 38.3823C1057.46 38.7876 1057.81 39.0234 1058.3 39.0234C1058.44 39.0378 1058.58 39.0235 1058.72 38.9814C1058.85 38.9393 1058.98 38.8703 1059.09 38.7784C1059.2 38.6866 1059.29 38.5738 1059.35 38.4468C1059.42 38.3198 1059.45 38.1811 1059.46 38.0391Z" fill="white"/>
<path d="M1061.52 37.4439C1061.52 36.021 1062.25 35.1196 1063.38 35.1196C1063.67 35.1067 1063.95 35.1741 1064.19 35.314C1064.43 35.4539 1064.63 35.6605 1064.77 35.9096H1064.83V33.4365H1065.72V39.6973H1064.87V38.9858H1064.8C1064.66 39.2333 1064.45 39.4374 1064.2 39.5758C1063.95 39.7143 1063.67 39.782 1063.38 39.7715C1062.24 39.7715 1061.52 38.8701 1061.52 37.4439ZM1062.43 37.4439C1062.43 38.3989 1062.88 38.9737 1063.64 38.9737C1064.39 38.9737 1064.85 38.3907 1064.85 37.4478C1064.85 36.5093 1064.38 35.918 1063.64 35.918C1062.89 35.918 1062.43 36.4966 1062.43 37.4439Z" fill="white"/>
<path d="M1069.4 37.4438C1069.37 37.1479 1069.4 36.8493 1069.5 36.5672C1069.59 36.2852 1069.74 36.0258 1069.94 35.8059C1070.14 35.5859 1070.39 35.4101 1070.66 35.2898C1070.93 35.1696 1071.22 35.1074 1071.52 35.1074C1071.82 35.1074 1072.11 35.1696 1072.38 35.2898C1072.66 35.4101 1072.9 35.5859 1073.1 35.8059C1073.3 36.0258 1073.45 36.2852 1073.55 36.5672C1073.64 36.8493 1073.67 37.1479 1073.64 37.4438C1073.67 37.74 1073.64 38.039 1073.55 38.3215C1073.45 38.6041 1073.3 38.8639 1073.1 39.0843C1072.9 39.3047 1072.66 39.4808 1072.39 39.6014C1072.11 39.7219 1071.82 39.7842 1071.52 39.7842C1071.22 39.7842 1070.93 39.7219 1070.66 39.6014C1070.39 39.4808 1070.14 39.3047 1069.94 39.0843C1069.74 38.8639 1069.59 38.6041 1069.5 38.3215C1069.4 38.039 1069.37 37.74 1069.4 37.4438ZM1072.73 37.4438C1072.73 36.4677 1072.29 35.8969 1071.52 35.8969C1070.75 35.8969 1070.32 36.4677 1070.32 37.4438C1070.32 38.4277 1070.75 38.9941 1071.52 38.9941C1072.29 38.9941 1072.73 38.4238 1072.73 37.4438Z" fill="white"/>
<path d="M1074.84 35.1939H1075.69V35.9092H1075.76C1075.87 35.6523 1076.06 35.4369 1076.3 35.2931C1076.54 35.1493 1076.82 35.0842 1077.1 35.107C1077.32 35.0905 1077.54 35.1235 1077.75 35.2036C1077.95 35.2837 1078.13 35.4088 1078.28 35.5697C1078.43 35.7305 1078.55 35.923 1078.61 36.1328C1078.68 36.3426 1078.69 36.5644 1078.66 36.7818V39.6968H1077.77V37.0049C1077.77 36.2813 1077.46 35.9214 1076.8 35.9214C1076.65 35.9145 1076.5 35.9398 1076.37 35.9957C1076.23 36.0515 1076.1 36.1365 1076 36.2449C1075.9 36.3533 1075.82 36.4825 1075.77 36.6236C1075.73 36.7647 1075.71 36.9145 1075.73 37.0625V39.6968H1074.84V35.1939Z" fill="white"/>
<path d="M1083.68 34.0732V35.2148H1084.66V35.9634H1083.68V38.2788C1083.68 38.7505 1083.88 38.957 1084.32 38.957C1084.43 38.9567 1084.55 38.9498 1084.66 38.9365V39.6768C1084.5 39.7053 1084.34 39.7205 1084.17 39.7222C1083.19 39.7222 1082.79 39.3745 1082.79 38.5063V35.9633H1082.08V35.2148H1082.79V34.0732H1083.68Z" fill="white"/>
<path d="M1085.87 33.4365H1086.75V35.918H1086.82C1086.94 35.6587 1087.14 35.4421 1087.38 35.2977C1087.63 35.1534 1087.91 35.0883 1088.2 35.1113C1088.42 35.0995 1088.63 35.1359 1088.84 35.2179C1089.04 35.2999 1089.22 35.4256 1089.37 35.586C1089.52 35.7463 1089.63 35.9373 1089.69 36.1455C1089.76 36.3536 1089.78 36.5737 1089.75 36.79V39.6973H1088.86V37.0093C1088.86 36.29 1088.52 35.9258 1087.9 35.9258C1087.74 35.9132 1087.59 35.9342 1087.45 35.9873C1087.3 36.0404 1087.17 36.1242 1087.06 36.2329C1086.96 36.3417 1086.87 36.4727 1086.82 36.6168C1086.77 36.761 1086.75 36.9147 1086.76 37.0674V39.6973H1085.87L1085.87 33.4365Z" fill="white"/>
<path d="M1094.93 38.4815C1094.81 38.8931 1094.55 39.249 1094.19 39.4872C1093.83 39.7253 1093.4 39.8305 1092.98 39.7842C1092.68 39.7921 1092.39 39.7353 1092.11 39.6177C1091.84 39.5002 1091.6 39.3248 1091.4 39.1036C1091.2 38.8825 1091.05 38.6209 1090.97 38.3371C1090.88 38.0533 1090.86 37.754 1090.9 37.46C1090.86 37.1652 1090.88 36.8652 1090.97 36.5805C1091.06 36.2959 1091.2 36.0331 1091.4 35.81C1091.6 35.587 1091.84 35.4088 1092.11 35.2876C1092.38 35.1664 1092.68 35.105 1092.97 35.1075C1094.23 35.1075 1094.98 35.9635 1094.98 37.3775V37.6876H1091.8V37.7374C1091.79 37.9026 1091.81 38.069 1091.86 38.2257C1091.92 38.3825 1092 38.5262 1092.12 38.6476C1092.23 38.7691 1092.37 38.8656 1092.52 38.931C1092.67 38.9964 1092.84 39.0292 1093 39.0274C1093.22 39.0529 1093.43 39.0146 1093.62 38.9174C1093.81 38.8202 1093.97 38.6685 1094.07 38.4815L1094.93 38.4815ZM1091.8 37.0303H1094.08C1094.09 36.8792 1094.07 36.7274 1094.02 36.5847C1093.97 36.442 1093.89 36.3115 1093.78 36.2016C1093.68 36.0918 1093.55 36.005 1093.41 35.9468C1093.27 35.8886 1093.12 35.8604 1092.97 35.8638C1092.82 35.8619 1092.66 35.8908 1092.52 35.9487C1092.38 36.0067 1092.25 36.0925 1092.14 36.2012C1092.03 36.3099 1091.95 36.4393 1091.89 36.5817C1091.83 36.7241 1091.8 36.8766 1091.8 37.0303Z" fill="white"/>
</g>
</g>
<defs>
<linearGradient id="paint0_linear_4_7316" x1="852.3" y1="33.7097" x2="835.52" y2="50.4897" gradientUnits="userSpaceOnUse">
<stop stop-color="#00A0FF"/>
<stop offset="0.01" stop-color="#00A1FF"/>
<stop offset="0.26" stop-color="#00BEFF"/>
<stop offset="0.51" stop-color="#00D2FF"/>
<stop offset="0.76" stop-color="#00DFFF"/>
<stop offset="1" stop-color="#00E3FF"/>
</linearGradient>
<linearGradient id="paint1_linear_4_7316" x1="864.33" y1="44.9997" x2="840.14" y2="44.9997" gradientUnits="userSpaceOnUse">
<stop stop-color="#FFE000"/>
<stop offset="0.41" stop-color="#FFBD00"/>
<stop offset="0.78" stop-color="#FFA500"/>
<stop offset="1" stop-color="#FF9C00"/>
</linearGradient>
<linearGradient id="paint2_linear_4_7316" x1="855.33" y1="47.3" x2="832.57" y2="70.05" gradientUnits="userSpaceOnUse">
<stop stop-color="#FF3A44"/>
<stop offset="1" stop-color="#C31162"/>
</linearGradient>
<linearGradient id="paint3_linear_4_7316" x1="837.8" y1="25.1796" x2="847.96" y2="35.3396" gradientUnits="userSpaceOnUse">
<stop stop-color="#32A071"/>
<stop offset="0.07" stop-color="#2DA771"/>
<stop offset="0.48" stop-color="#15CF74"/>
<stop offset="0.8" stop-color="#06E775"/>
<stop offset="1" stop-color="#00F076"/>
</linearGradient>
<clipPath id="clip0_4_7316">
<rect width="140" height="40" fill="white" transform="translate(828 25)"/>
</clipPath>
<clipPath id="clip1_4_7316">
<rect width="135" height="40" fill="white" transform="translate(830.5 25)"/>
</clipPath>
<clipPath id="clip2_4_7316">
<rect width="140" height="40" fill="white" transform="translate(980 25)"/>
</clipPath>
<clipPath id="clip3_4_7316">
<rect width="119.664" height="40" fill="white" transform="translate(990.168 25)"/>
</clipPath>
</defs>
</svg>
