<svg width="240" height="44" viewBox="0 0 240 44" fill="none" xmlns="http://www.w3.org/2000/svg">
<rect x="0.589844" width="239.42" height="44" rx="8" fill="#97CAD1" fill-opacity="0.12"/>
<path d="M15.1191 16.4512H17.4434L21.3301 27.1543L25.207 16.4512H27.541L22.2578 30.6699H20.3926L15.1191 16.4512ZM13.9473 16.4512H16.2227L16.6328 26.2852V30.6699H13.9473V16.4512ZM26.4277 16.4512H28.7129V30.6699H26.0273V26.2852L26.4277 16.4512ZM30.793 25.4941V25.2891C30.793 24.5143 30.9036 23.8014 31.125 23.1504C31.3464 22.4928 31.6686 21.9232 32.0918 21.4414C32.515 20.9596 33.0326 20.5853 33.6445 20.3184C34.2565 20.0449 34.9531 19.9082 35.7344 19.9082C36.5286 19.9082 37.2318 20.0449 37.8438 20.3184C38.4622 20.5853 38.9831 20.9596 39.4062 21.4414C39.8294 21.9232 40.1517 22.4928 40.373 23.1504C40.5944 23.8014 40.7051 24.5143 40.7051 25.2891V25.4941C40.7051 26.2624 40.5944 26.9753 40.373 27.6328C40.1517 28.2839 39.8294 28.8535 39.4062 29.3418C38.9831 29.8236 38.4655 30.1979 37.8535 30.4648C37.2415 30.7318 36.5417 30.8652 35.7539 30.8652C34.9727 30.8652 34.2728 30.7318 33.6543 30.4648C33.0358 30.1979 32.515 29.8236 32.0918 29.3418C31.6686 28.8535 31.3464 28.2839 31.125 27.6328C30.9036 26.9753 30.793 26.2624 30.793 25.4941ZM33.3711 25.2891V25.4941C33.3711 25.9564 33.4167 26.3893 33.5078 26.793C33.599 27.1966 33.7389 27.5514 33.9277 27.8574C34.1165 28.1634 34.3607 28.4043 34.6602 28.5801C34.9661 28.7493 35.3307 28.834 35.7539 28.834C36.1706 28.834 36.5286 28.7493 36.8281 28.5801C37.1276 28.4043 37.3717 28.1634 37.5605 27.8574C37.7559 27.5514 37.8991 27.1966 37.9902 26.793C38.0814 26.3893 38.127 25.9564 38.127 25.4941V25.2891C38.127 24.8333 38.0814 24.4069 37.9902 24.0098C37.8991 23.6061 37.7559 23.2513 37.5605 22.9453C37.3717 22.6328 37.1243 22.3887 36.8184 22.2129C36.5189 22.0306 36.1576 21.9395 35.7344 21.9395C35.3177 21.9395 34.9596 22.0306 34.6602 22.2129C34.3607 22.3887 34.1165 22.6328 33.9277 22.9453C33.7389 23.2513 33.599 23.6061 33.5078 24.0098C33.4167 24.4069 33.3711 24.8333 33.3711 25.2891ZM48.8691 28.1602V20.1035H51.4668V30.6699H49.0254L48.8691 28.1602ZM49.2012 25.9727L50.002 25.9531C50.002 26.6628 49.9238 27.3171 49.7676 27.916C49.6113 28.515 49.3672 29.0358 49.0352 29.4785C48.7096 29.9147 48.2962 30.2565 47.7949 30.5039C47.2936 30.7448 46.7012 30.8652 46.0176 30.8652C45.4967 30.8652 45.0215 30.7936 44.5918 30.6504C44.1621 30.5007 43.791 30.2695 43.4785 29.957C43.1725 29.638 42.9349 29.2311 42.7656 28.7363C42.5964 28.235 42.5117 27.6328 42.5117 26.9297V20.1035H45.0898V26.9492C45.0898 27.3008 45.1289 27.5938 45.207 27.8281C45.2917 28.0625 45.4056 28.2546 45.5488 28.4043C45.6986 28.5475 45.8711 28.6517 46.0664 28.7168C46.2682 28.7754 46.4831 28.8047 46.7109 28.8047C47.3359 28.8047 47.8275 28.681 48.1855 28.4336C48.5501 28.1797 48.8105 27.8411 48.9668 27.418C49.123 26.9883 49.2012 26.5065 49.2012 25.9727ZM56.2812 22.3594V30.6699H53.7031V20.1035H56.125L56.2812 22.3594ZM55.8711 25.0059H55.1094C55.1159 24.2376 55.2201 23.541 55.4219 22.916C55.6237 22.291 55.9069 21.7539 56.2715 21.3047C56.6426 20.8555 57.082 20.5104 57.5898 20.2695C58.0977 20.0286 58.6641 19.9082 59.2891 19.9082C59.7969 19.9082 60.2559 19.9798 60.666 20.123C61.0762 20.2663 61.4277 20.4941 61.7207 20.8066C62.0202 21.1191 62.248 21.5293 62.4043 22.0371C62.5671 22.5384 62.6484 23.1569 62.6484 23.8926V30.6699H60.0508V23.873C60.0508 23.3913 59.9792 23.0104 59.8359 22.7305C59.6992 22.4505 59.4974 22.252 59.2305 22.1348C58.9701 22.0176 58.6478 21.959 58.2637 21.959C57.8665 21.959 57.5182 22.0404 57.2188 22.2031C56.9258 22.3594 56.6784 22.5775 56.4766 22.8574C56.2812 23.1374 56.1315 23.4596 56.0273 23.8242C55.9232 24.1888 55.8711 24.5827 55.8711 25.0059ZM69.9238 20.1035V21.959H63.8691V20.1035H69.9238ZM65.4902 17.5059H68.0781V27.623C68.0781 27.9355 68.1204 28.1764 68.2051 28.3457C68.2897 28.515 68.4167 28.6289 68.5859 28.6875C68.7552 28.7461 68.957 28.7754 69.1914 28.7754C69.3607 28.7754 69.5169 28.7656 69.6602 28.7461C69.8034 28.7266 69.9238 28.707 70.0215 28.6875L70.0312 30.6211C69.8164 30.6927 69.5723 30.7513 69.2988 30.7969C69.0319 30.8424 68.7292 30.8652 68.3906 30.8652C67.8112 30.8652 67.3034 30.7676 66.8672 30.5723C66.431 30.3704 66.0924 30.0482 65.8516 29.6055C65.6107 29.1562 65.4902 28.5638 65.4902 27.8281V17.5059ZM77.4629 28.4238V23.5508C77.4629 23.1927 77.401 22.8835 77.2773 22.623C77.1536 22.3626 76.9648 22.1608 76.7109 22.0176C76.457 21.8743 76.1348 21.8027 75.7441 21.8027C75.3991 21.8027 75.0964 21.8613 74.8359 21.9785C74.582 22.0957 74.3867 22.2617 74.25 22.4766C74.1133 22.6849 74.0449 22.9258 74.0449 23.1992H71.457C71.457 22.763 71.5612 22.3496 71.7695 21.959C71.9779 21.5618 72.2741 21.2103 72.6582 20.9043C73.0488 20.5918 73.5143 20.3477 74.0547 20.1719C74.6016 19.9961 75.2135 19.9082 75.8906 19.9082C76.6914 19.9082 77.4043 20.0449 78.0293 20.3184C78.6608 20.5853 79.1556 20.9889 79.5137 21.5293C79.8783 22.0697 80.0605 22.75 80.0605 23.5703V28.1797C80.0605 28.707 80.0931 29.1595 80.1582 29.5371C80.2298 29.9082 80.334 30.2305 80.4707 30.5039V30.6699H77.8438C77.7201 30.403 77.6257 30.0645 77.5605 29.6543C77.4954 29.2376 77.4629 28.8275 77.4629 28.4238ZM77.8242 24.2344L77.8438 25.7676H76.2129C75.8092 25.7676 75.4544 25.8099 75.1484 25.8945C74.8424 25.9727 74.5918 26.0898 74.3965 26.2461C74.2012 26.3958 74.0547 26.5781 73.957 26.793C73.8594 27.0013 73.8105 27.2389 73.8105 27.5059C73.8105 27.7663 73.8691 28.0007 73.9863 28.209C74.11 28.4173 74.2858 28.5833 74.5137 28.707C74.748 28.8242 75.0215 28.8828 75.334 28.8828C75.7897 28.8828 76.1868 28.7917 76.5254 28.6094C76.8639 28.4206 77.1276 28.1927 77.3164 27.9258C77.5052 27.6589 77.6061 27.4049 77.6191 27.1641L78.3613 28.2773C78.2702 28.5443 78.1335 28.8275 77.9512 29.127C77.7689 29.4264 77.5345 29.7064 77.248 29.9668C76.9616 30.2272 76.6165 30.4421 76.2129 30.6113C75.8092 30.7806 75.3405 30.8652 74.8066 30.8652C74.123 30.8652 73.5111 30.7285 72.9707 30.4551C72.4303 30.1816 72.0039 29.8073 71.6914 29.332C71.3789 28.8568 71.2227 28.3164 71.2227 27.7109C71.2227 27.151 71.3268 26.6562 71.5352 26.2266C71.7435 25.7969 72.0527 25.4355 72.4629 25.1426C72.873 24.8431 73.3809 24.6185 73.9863 24.4688C74.5983 24.3125 75.2982 24.2344 76.0859 24.2344H77.8242ZM85.1191 20.1035V30.6699H82.5312V20.1035H85.1191ZM82.3555 17.3398C82.3555 16.9557 82.4857 16.6367 82.7461 16.3828C83.013 16.1289 83.3711 16.002 83.8203 16.002C84.2695 16.002 84.6243 16.1289 84.8848 16.3828C85.1517 16.6367 85.2852 16.9557 85.2852 17.3398C85.2852 17.7174 85.1517 18.0332 84.8848 18.2871C84.6243 18.541 84.2695 18.668 83.8203 18.668C83.3711 18.668 83.013 18.541 82.7461 18.2871C82.4857 18.0332 82.3555 17.7174 82.3555 17.3398ZM90.1094 22.3594V30.6699H87.5312V20.1035H89.9531L90.1094 22.3594ZM89.6992 25.0059H88.9375C88.944 24.2376 89.0482 23.541 89.25 22.916C89.4518 22.291 89.735 21.7539 90.0996 21.3047C90.4707 20.8555 90.9102 20.5104 91.418 20.2695C91.9258 20.0286 92.4922 19.9082 93.1172 19.9082C93.625 19.9082 94.084 19.9798 94.4941 20.123C94.9043 20.2663 95.2559 20.4941 95.5488 20.8066C95.8483 21.1191 96.0762 21.5293 96.2324 22.0371C96.3952 22.5384 96.4766 23.1569 96.4766 23.8926V30.6699H93.8789V23.873C93.8789 23.3913 93.8073 23.0104 93.6641 22.7305C93.5273 22.4505 93.3255 22.252 93.0586 22.1348C92.7982 22.0176 92.4759 21.959 92.0918 21.959C91.6947 21.959 91.3464 22.0404 91.0469 22.2031C90.7539 22.3594 90.5065 22.5775 90.3047 22.8574C90.1094 23.1374 89.9596 23.4596 89.8555 23.8242C89.7513 24.1888 89.6992 24.5827 89.6992 25.0059ZM108.928 27.8867L112.473 16.4512H115.451L110.432 30.6699H108.449L108.928 27.8867ZM105.656 16.4512L109.182 27.8867L109.689 30.6699H107.688L102.688 16.4512H105.656ZM119.455 20.1035V30.6699H116.867V20.1035H119.455ZM116.691 17.3398C116.691 16.9557 116.822 16.6367 117.082 16.3828C117.349 16.1289 117.707 16.002 118.156 16.002C118.605 16.002 118.96 16.1289 119.221 16.3828C119.488 16.6367 119.621 16.9557 119.621 17.3398C119.621 17.7174 119.488 18.0332 119.221 18.2871C118.96 18.541 118.605 18.668 118.156 18.668C117.707 18.668 117.349 18.541 117.082 18.2871C116.822 18.0332 116.691 17.7174 116.691 17.3398ZM126.662 30.8652C125.861 30.8652 125.142 30.735 124.504 30.4746C123.866 30.2142 123.322 29.8529 122.873 29.3906C122.43 28.9219 122.089 28.3783 121.848 27.7598C121.613 27.1348 121.496 26.4642 121.496 25.748V25.3574C121.496 24.5436 121.613 23.8047 121.848 23.1406C122.082 22.4701 122.414 21.8939 122.844 21.4121C123.273 20.9303 123.788 20.5592 124.387 20.2988C124.986 20.0384 125.646 19.9082 126.369 19.9082C127.118 19.9082 127.779 20.0352 128.352 20.2891C128.924 20.5365 129.403 20.888 129.787 21.3438C130.171 21.7995 130.461 22.3464 130.656 22.9844C130.852 23.6159 130.949 24.3158 130.949 25.084V26.168H122.668V24.3906H128.41V24.1953C128.397 23.7852 128.319 23.4108 128.176 23.0723C128.033 22.7272 127.811 22.4538 127.512 22.252C127.212 22.0436 126.825 21.9395 126.35 21.9395C125.965 21.9395 125.63 22.0241 125.344 22.1934C125.064 22.3561 124.829 22.5905 124.641 22.8965C124.458 23.196 124.322 23.554 124.23 23.9707C124.139 24.3874 124.094 24.8496 124.094 25.3574V25.748C124.094 26.1908 124.152 26.6009 124.27 26.9785C124.393 27.3561 124.572 27.6849 124.807 27.9648C125.048 28.2383 125.334 28.4531 125.666 28.6094C126.005 28.7591 126.389 28.834 126.818 28.834C127.359 28.834 127.847 28.7298 128.283 28.5215C128.726 28.3066 129.11 27.9909 129.436 27.5742L130.734 28.9219C130.513 29.2474 130.214 29.5599 129.836 29.8594C129.465 30.1589 129.016 30.403 128.488 30.5918C127.961 30.7741 127.352 30.8652 126.662 30.8652ZM135.617 28.1309L137.932 20.1035H139.572L139.084 22.877L136.75 30.6699H135.334L135.617 28.1309ZM134.338 20.1035L136.076 28.1504L136.232 30.6699H134.602L131.828 20.1035H134.338ZM141.721 28.0332L143.42 20.1035H145.92L143.166 30.6699H141.535L141.721 28.0332ZM139.826 20.1035L142.121 28.0527L142.424 30.6699H141.008L138.654 22.877L138.176 20.1035H139.826ZM148.664 28.3457L148.645 30.1328C148.645 30.8294 148.472 31.5358 148.127 32.252C147.782 32.9681 147.336 33.5605 146.789 34.0293L145.422 33.2773C145.598 32.9844 145.76 32.6882 145.91 32.3887C146.066 32.0892 146.19 31.7637 146.281 31.4121C146.379 31.0671 146.428 30.6797 146.428 30.25V28.3457H148.664ZM164.436 25.9922H167.121C167.049 26.9427 166.786 27.7858 166.33 28.5215C165.874 29.2507 165.24 29.8236 164.426 30.2402C163.612 30.6569 162.626 30.8652 161.467 30.8652C160.575 30.8652 159.771 30.709 159.055 30.3965C158.345 30.0775 157.736 29.625 157.229 29.0391C156.727 28.4466 156.343 27.737 156.076 26.9102C155.809 26.0768 155.676 25.1426 155.676 24.1074V23.0234C155.676 21.9883 155.812 21.054 156.086 20.2207C156.359 19.3874 156.75 18.6777 157.258 18.0918C157.772 17.4993 158.387 17.0436 159.104 16.7246C159.826 16.4056 160.633 16.2461 161.525 16.2461C162.684 16.2461 163.664 16.4609 164.465 16.8906C165.266 17.3138 165.887 17.8965 166.33 18.6387C166.773 19.3809 167.04 20.2337 167.131 21.1973H164.445C164.393 20.5983 164.263 20.0905 164.055 19.6738C163.853 19.2572 163.547 18.9414 163.137 18.7266C162.733 18.5052 162.196 18.3945 161.525 18.3945C161.005 18.3945 160.546 18.4922 160.148 18.6875C159.758 18.8828 159.432 19.1758 159.172 19.5664C158.911 19.9505 158.716 20.4323 158.586 21.0117C158.456 21.5846 158.391 22.2487 158.391 23.0039V24.1074C158.391 24.8301 158.449 25.4779 158.566 26.0508C158.684 26.6237 158.866 27.1087 159.113 27.5059C159.361 27.903 159.68 28.2057 160.07 28.4141C160.461 28.6224 160.926 28.7266 161.467 28.7266C162.124 28.7266 162.658 28.6224 163.068 28.4141C163.485 28.2057 163.801 27.8997 164.016 27.4961C164.237 27.0924 164.377 26.5911 164.436 25.9922ZM174.855 18.6094L170.803 30.6699H167.961L173.273 16.4512H175.09L174.855 18.6094ZM178.244 30.6699L174.172 18.6094L173.928 16.4512H175.754L181.096 30.6699H178.244ZM178.059 25.3867V27.5059H170.432V25.3867H178.059Z" fill="#00798A"/>
<path fill-rule="evenodd" clip-rule="evenodd" d="M219.521 14.7997C220.236 14.0837 221.397 14.0837 222.113 14.7997L223.41 16.096C224.126 16.812 224.126 17.9728 223.41 18.6888L222.113 19.9851L218.224 16.096L219.521 14.7997ZM217.576 16.7442L221.465 20.6333L213.955 28.143C213.783 28.3149 213.55 28.4115 213.307 28.4115H210.256C210.003 28.4115 209.798 28.2062 209.798 27.9531V24.9021C209.798 24.6589 209.894 24.4258 210.066 24.2539L217.576 16.7442ZM210.374 29.5449C209.994 29.5449 209.687 29.8527 209.687 30.2324C209.687 30.6122 209.994 30.9199 210.374 30.9199H223.666C224.045 30.9199 224.353 30.6122 224.353 30.2324C224.353 29.8527 224.045 29.5449 223.666 29.5449H210.374Z" fill="#00798A"/>
</svg>
